<svg width="51" height="51" viewBox="0 0 51 51" fill="none" xmlns="http://www.w3.org/2000/svg">
<path d="M44.6237 40.7712V35.0129C44.6471 34.0716 44.323 33.1545 43.7131 32.4361C41.9931 30.4101 36.0941 29.1141 33.7558 29.6119C31.933 29.9998 30.6578 31.83 29.411 33.0743C24.5961 30.3419 20.6095 26.3631 17.8717 21.5578C19.1184 20.3135 20.9522 19.0408 21.341 17.2216C21.8389 14.8915 20.5448 9.03017 18.5328 7.30329C17.8251 6.69588 16.9203 6.36602 15.9869 6.37519H10.2172C8.01885 6.37725 6.18986 8.34901 6.39001 10.5595C6.375 29.6119 21.25 44.625 40.4311 44.61C42.6534 44.8105 44.6327 42.9724 44.6237 40.7712Z" stroke="white" stroke-width="2.6" stroke-linecap="round" stroke-linejoin="round"/>
</svg>
